<?xml version="1.0" encoding="UTF-8"?>
<svg id="Layer_1" data-name="Layer 1" xmlns="http://www.w3.org/2000/svg" viewBox="0 0 148.13 148.3">
  <defs>
    <style>
      .cls-1 {
        fill: #f37025;
      }
    </style>
  </defs>
  <path class="cls-1" d="M108.93,38.87l-27.23,20.51-1.8,1.33c-4.2,3.11-8.25,6.11-12.31,9.34-.83.66-1.58,1.15-2.37,1.71-4.41,3.1-8.45,6.44-12.8,9.62l-1.58,1.15-13.59,10.16-.02,53.72c0,.49-.03,1.09-.17,1.3-.19.28-1.08.56-1.51.56l-35.55-.08V.35C3.42.17,6.25.02,9.62.02L146.16,0c1.05,0,1.95.88,1.95,1.91l-.08,63.02c-1.94-1.07-3.25-1.84-4.63-2.9l-6.62-5.08-8.98-6.72-5.93-4.44-8.76-6.56c-.93-.7-2.74-1.46-4.17-.38Z"/>
  <path class="cls-1" d="M148.09,104.15l.04,42.28c0,1.28-1.05,1.95-2.37,1.86h-71.77s-.02-46.66-.02-46.66l36.74-27.57,6.14,4.37c.76.26,1.38,1.16,2.07,1.68l28.67,21.51c.08.52.49,1.72.49,2.54Z"/>
</svg>